<?xml version="1.0" standalone="no"?>
<!DOCTYPE svg PUBLIC "-//W3C//DTD SVG 20010904//EN"
 "http://www.w3.org/TR/2001/REC-SVG-20010904/DTD/svg10.dtd">
<svg version="1.0" xmlns="http://www.w3.org/2000/svg"
 width="512.000000pt" height="512.000000pt" viewBox="0 0 512.000000 512.000000"
 preserveAspectRatio="xMidYMid meet">
<metadata>
Created by potrace 1.14, written by Peter Selinger 2001-2017
</metadata>
<g transform="translate(0.000000,512.000000) scale(0.100000,-0.100000)"
fill="#000000" stroke="none">
<path d="M2429 5116 c-2 -2 -26 -6 -54 -10 -84 -10 -242 -45 -285 -63 -8 -3
-22 -7 -30 -9 -9 -2 -32 -10 -53 -19 -20 -8 -40 -16 -44 -16 -5 -1 -17 -6 -28
-12 -11 -6 -22 -12 -25 -12 -3 0 -27 -11 -55 -23 -27 -13 -62 -28 -77 -35 -16
-6 -28 -16 -28 -20 0 -5 -4 -5 -10 -2 -5 3 -10 1 -10 -4 0 -6 -3 -10 -7 -9 -9
1 -46 -13 -53 -21 -3 -3 -45 -30 -95 -60 -144 -86 -337 -235 -457 -353 -26
-26 -48 -45 -48 -41 0 3 -9 -5 -19 -18 -10 -13 -38 -44 -61 -69 -90 -96 -241
-282 -252 -311 -4 -11 -12 -19 -18 -19 -5 0 -10 -7 -10 -15 0 -8 -4 -15 -10
-15 -5 0 -10 -6 -10 -13 0 -7 -8 -22 -18 -33 -17 -20 -25 -33 -64 -103 -11
-20 -24 -40 -28 -46 -24 -30 -115 -224 -112 -237 1 -5 -2 -8 -8 -8 -5 0 -10
-7 -10 -16 0 -8 -13 -46 -30 -85 -16 -38 -27 -69 -24 -69 2 0 0 -9 -6 -21 -7
-11 -14 -33 -16 -47 -3 -15 -9 -31 -15 -38 -5 -6 -6 -13 -4 -16 3 -3 1 -17 -5
-32 -5 -15 -12 -41 -15 -59 -4 -26 -11 -58 -20 -97 -12 -51 -23 -162 -26 -262
-1 -41 -7 -68 -13 -68 -8 0 -8 -3 -1 -8 6 -4 11 -38 12 -77 2 -76 9 -160 18
-215 5 -34 17 -100 20 -110 2 -11 17 -85 17 -87 -1 -11 64 -184 91 -243 38
-83 114 -213 128 -218 5 -2 9 -10 9 -18 0 -8 5 -14 10 -14 6 0 10 -7 10 -16 0
-8 4 -12 10 -9 5 3 10 1 10 -6 0 -6 10 -20 22 -30 11 -11 19 -19 16 -19 -12 0
113 -118 182 -172 41 -32 81 -63 88 -69 82 -67 423 -228 539 -254 12 -3 33 -9
47 -15 13 -5 27 -6 30 -3 3 4 6 1 6 -5 0 -7 3 -11 8 -10 4 1 25 -3 47 -7 56
-13 54 -12 60 -15 3 -1 14 -4 25 -5 11 -1 21 -3 23 -5 3 -3 39 -10 65 -12 12
-1 22 -5 22 -8 0 -3 17 -6 38 -7 44 -2 107 -10 107 -13 0 -1 18 -4 40 -6 90
-9 83 2 71 -114 -4 -36 -8 -78 -9 -95 -1 -16 -6 -33 -12 -37 -6 -5 -5 -8 3 -8
8 0 10 -5 5 -12 -4 -7 -8 -31 -10 -53 -1 -22 -2 -40 -3 -40 -2 0 -10 -61 -14
-115 -2 -25 -4 -45 -6 -45 -7 0 -5 -165 2 -190 5 -16 11 -37 13 -46 2 -9 12
-33 23 -53 55 -103 154 -168 307 -204 57 -14 112 -18 218 -16 163 2 196 6 290
40 139 49 222 134 264 269 8 25 10 200 3 200 -1 0 -3 16 -4 35 -1 19 -4 40 -7
45 -3 6 -5 29 -5 53 1 23 -1 42 -4 42 -4 0 -6 10 -7 23 -2 61 -19 229 -28 272
-7 36 1 40 95 50 14 2 25 4 25 5 0 1 14 3 30 5 51 6 100 14 100 15 0 3 99 21
133 23 12 1 22 6 22 10 0 5 9 5 20 2 12 -4 20 -2 20 5 0 7 6 10 14 7 8 -3 17
-3 21 1 4 4 11 8 16 8 5 1 10 2 12 3 1 2 13 4 27 7 14 2 32 7 40 11 8 3 22 7
31 9 9 2 29 9 45 15 16 7 34 13 39 14 99 22 443 206 521 279 7 6 29 25 49 41
55 44 135 125 135 136 0 6 5 7 10 4 6 -3 10 -2 10 4 0 5 11 23 25 38 41 46 46
53 40 53 -3 0 4 9 14 19 43 43 181 313 181 353 0 8 3 18 7 22 4 3 8 12 9 19 2
7 12 44 22 84 11 40 17 74 14 77 -3 4 -1 6 4 6 5 0 9 10 10 23 0 26 12 118 21
167 7 41 10 340 3 340 -3 0 -4 15 -4 32 1 18 -3 41 -8 51 -5 11 -5 17 1 17 7
0 7 9 1 24 -5 14 -11 42 -14 63 -3 21 -10 56 -15 78 -6 22 -8 41 -6 44 2 2 0
11 -5 21 -5 9 -11 28 -14 41 -8 48 -85 266 -117 334 -18 39 -34 76 -35 83 -1
8 -10 22 -19 32 -8 9 -17 27 -20 38 -2 12 -17 41 -32 64 -16 24 -34 55 -41 71
-6 15 -16 27 -22 27 -5 0 -9 3 -8 8 2 6 -49 91 -69 117 -5 6 -24 32 -43 60
-19 27 -40 56 -47 63 -7 7 -33 39 -59 72 -26 33 -51 60 -55 60 -5 0 -9 5 -9
10 0 6 -35 46 -78 90 -44 44 -77 82 -74 85 3 3 0 5 -6 5 -7 0 -36 22 -65 50
-68 65 -184 162 -222 185 -16 11 -32 22 -35 26 -9 11 -203 136 -232 150 -16 7
-28 16 -28 21 0 4 -8 8 -17 8 -10 0 -29 9 -43 20 -14 11 -33 20 -42 20 -10 0
-18 4 -18 9 0 5 -10 13 -22 16 -13 4 -52 21 -88 37 -35 16 -77 32 -92 35 -15
3 -28 10 -28 16 0 6 -3 8 -6 4 -3 -3 -31 3 -62 14 -58 20 -160 46 -221 55 -18
3 -43 8 -55 11 -24 6 -322 14 -327 9z"/>
</g>
</svg>
